<svg xmlns="http://www.w3.org/2000/svg" width="1058" height="243" viewBox="0 0 1057.76 242.53">
  <defs>
    <style>
      .PlayTogether__paths > * {
        fill: #E3902F;
      }
    </style>
  </defs>
  <g class="PlayTogether__paths">
    <path d="M88.89,34.89A40.22,40.22,0,0,0,98.22,33a13.21,13.21,0,0,0,6.42-4.56,19.13,19.13,0,0,0,3.93-8.08,10.08,10.08,0,0,0,0-6.42,4.47,4.47,0,0,0-3.31-2.69q-5.39-1.25-11,9.52a89.66,89.66,0,0,0-5.39,14.1M49.54,126.44A32.9,32.9,0,0,0,29,123.33q-13.89,1.86-17,12-2.68,8.5,2.9,11.6,6.63,3.52,14.92-1.24,11.19-6.21,19.67-19.26M74.81,46.07a130.68,130.68,0,0,1-31.49-7,5.82,5.82,0,0,1-3.1-2.9,5.53,5.53,0,0,1,2.43-7.43l.05,0a6,6,0,0,1,4.35-.41,117.68,117.68,0,0,0,30.24,6.83,88.58,88.58,0,0,1,7-19.26Q93.87-2.81,107.74.5a15.15,15.15,0,0,1,11.19,9.11,23.18,23.18,0,0,1,.62,13.47,32.33,32.33,0,0,1-6.42,12.74,23.43,23.43,0,0,1-11.6,8A66.41,66.41,0,0,1,86.2,46.28q-.42,2.27-2.07,9.94L81.65,68q-.83,4.35-2.38,11T76.05,91.43q-1.65,5.8-3.52,11.39A194.21,194.21,0,0,1,64,123.54a119.66,119.66,0,0,1,9.74,10.77Q86,149.22,87.65,150.88A48.3,48.3,0,0,0,96.87,159a27.34,27.34,0,0,0,9.63,3.72,18.13,18.13,0,0,0,11-1.44,5.5,5.5,0,0,1,4.34.1,5.57,5.57,0,0,1-.2,10.25A35.51,35.51,0,0,1,111.05,174a30.7,30.7,0,0,1-9.31-.73,32.64,32.64,0,0,1-8.29-3.41,52.33,52.33,0,0,1-7.36-5.08,78,78,0,0,1-6.52-6.21q-2.07-2.29-14.29-17.2l-7-7.87q-9.74,14.72-23,22.17a30.32,30.32,0,0,1-12.94,3.73,22.54,22.54,0,0,1-12.54-2.7,17.73,17.73,0,0,1-8.59-9.73q-2.38-6.42.1-14.91a26.45,26.45,0,0,1,9.94-13.68,36.07,36.07,0,0,1,16.15-6.21q15.14-2.07,27.55,4.56a149.66,149.66,0,0,0,7-17.4l3.11-10.36q1.66-5.18,3.32-12l2.07-9.74,2.48-11.8q1.88-8.7,1.87-9.32"/>
    <path d="M95.66,135.23a12,12,0,0,0,10.14,1.25Q112.22,134.2,117,127q4.55-7,4.14-13.25c-.14-3.59-1.79-5.87-5-6.84q-5.59-2.07-11.6,6-6.84,8.89-8.9,22.36m-.21,12a21.21,21.21,0,0,0,3.1,9.74q5.17,7.65,17.81,4.76,10.36-2.48,16.16-13.46a81.61,81.61,0,0,0,3.73-8.19q1.65-4.24,3.52-9.83t3.32-9.53a5.59,5.59,0,0,1,10.25-.21,5.66,5.66,0,0,1,.1,4.35l-2.9,8.7q-2.07,5.8-3.94,10.77a82.55,82.55,0,0,1-4.14,9.32q-8.09,15.35-23.61,18.85-20.1,4.77-29.42-9.32-7.46-11-4.76-29,2.27-16.78,11-28.17a30.65,30.65,0,0,1,11-9.22,17.24,17.24,0,0,1,13.26-.73q11.81,4.15,12.43,17,.62,9.95-6,20.1-6.84,10.56-17,13.87a22.58,22.58,0,0,1-13.87.21"/>
    <path d="M148.47,93A100.31,100.31,0,0,1,134,90.5a5.1,5.1,0,0,1-3.52-2.39,5.64,5.64,0,0,1,1.76-7.76,5.11,5.11,0,0,1,4.25-.62A120.71,120.71,0,0,0,150.75,82q3.93-17,9.53-36A5.36,5.36,0,0,1,163,42.75a5.49,5.49,0,0,1,4.25-.52,5.35,5.35,0,0,1,3.31,2.7,5.65,5.65,0,0,1,.52,4.35q-5.19,17-8.7,32.72a96.85,96.85,0,0,0,14.29-2.06,5.1,5.1,0,0,1,4.25.61,5.46,5.46,0,0,1,2.48,3.53,5.34,5.34,0,0,1-.73,4.24,5.06,5.06,0,0,1-3.51,2.39,111.75,111.75,0,0,1-19.27,2.69q-7.05,34.17-4.76,53a28.07,28.07,0,0,0,3.21,10.88q2.38,4,5.07,5.07,6.23,2.3,13.06-9.11,7.44-12.42,11.8-35.42a6.54,6.54,0,0,1,2.48-3.63,5,5,0,0,1,4.15-.82,6,6,0,0,1,3.62,2.38,5.28,5.28,0,0,1,.94,4.14q-5,25.07-13.47,39.15-5.39,8.91-12.32,12.74a16.33,16.33,0,0,1-14.19,1.14,21.36,21.36,0,0,1-10.57-9.32,40.83,40.83,0,0,1-5-16q-2.47-20.5,4.56-54.69"/>
    <path d="M212.35,164l-4.25-2.6a50.77,50.77,0,0,0-8.24-4.83,18.23,18.23,0,0,0-7.18-2.5,3,3,0,0,0-2.82.72c-.81,1-.67,2.15.42,3.5q3.5,4.22,10.53,5.89a20.07,20.07,0,0,0,11.54-.18m-25.81-39.34q.12-.44,2.57-11.4l1.69-7c.21-1.16.4-2,.57-2.63a3.14,3.14,0,0,0,.47-.93,2.41,2.41,0,0,1,.29-.68,4.91,4.91,0,0,1,1.34-1.93q4-3.64,9.52-.87a24.38,24.38,0,0,1,6.13,4.8,93.09,93.09,0,0,1,11.23,15.65,111.31,111.31,0,0,1,9.4,18.3q4.42,10.56,3.28,15.82c-.3,1.46-.62,2.85-.94,4.17l3.85.36q11.87,1.65,18.42-13.42,3.92-8.7,7.54-30.61a5,5,0,0,1,2.1-3.54,5.53,5.53,0,0,1,7.75,1.09l0,0a5.32,5.32,0,0,1,1,4.24q-3.63,23.18-8.09,33.45-10,22.63-30.08,19.94l-3.65-.4-5-.79a23.68,23.68,0,0,1-7.05,5.27q-9.12,4.37-20.79,1.42-10.56-2.52-16.44-9.46a13.81,13.81,0,0,1-3.63-8.5,12,12,0,0,1,3.33-9.55A13.71,13.71,0,0,1,193.62,143,33.24,33.24,0,0,1,205,146.39q3.74,2.07,9.2,5.5,4.77,3.15,5.36,3.46c.38.21.8.41,1.26.61a19.17,19.17,0,0,0,1.3-4.44q.28-2-2.74-9.4a111.42,111.42,0,0,0-8.49-16.78q-5.43-9.12-9.81-13.6l-1,4q-2.58,11.4-2.88,12.09a5.55,5.55,0,1,1-10.7-3,.74.74,0,0,1,0-.14"/>
    <path d="M281.5,48.73a4.87,4.87,0,0,1,.63,4.16Q276.33,79,273,115.65q18-2.9,29.62-8.08a126.06,126.06,0,0,0,18-9.53,35.47,35.47,0,0,0,10.77-11.6q7.26-12.84.63-23.41-6.23-10.35-21.14-14.3a59.29,59.29,0,0,0-29.41,0M231,63.23Q274.46,27.62,313.82,38q19.05,5,27.75,19.27,9.94,16.16-.21,34.59a43.47,43.47,0,0,1-10,11.7,71.38,71.38,0,0,1-11.5,8.18q-5.18,2.9-12.64,6.21-13.46,6-35.21,9.11l-1.86,20.72q-1,13.67-1.45,19.89a5.59,5.59,0,0,1-2,3.82,5.14,5.14,0,0,1-4,1.35,5.62,5.62,0,0,1-3.83-2,5.15,5.15,0,0,1-1.35-4l1.87-22q1.25-16.77,2-24.75t2.17-21.44Q264.93,85.21,266.8,74t4.14-22Q254.79,58.28,238,71.93a5.64,5.64,0,0,1-4.14,1.25,5.16,5.16,0,0,1-3.73-2.07A5.68,5.68,0,0,1,228.89,67,5.2,5.2,0,0,1,231,63.23"/>
    <path d="M340,117.58a197.33,197.33,0,0,1,14.23-65c2.9-7.18,6.57-14.42,14-17.79a2.43,2.43,0,0,1,1.54-.31,2.24,2.24,0,0,1,1.07.72c2.5,2.72,2.64,6.89,1.82,10.48-3,13.32-7.28,27.15-13.17,39.48A198.39,198.39,0,0,1,340,117.58m46.49,10.31c-2-4.83-.87-11.39-4-15.57-1.3,11.25-6.63,21.76-10.31,28.87q-3.54,6.84-7.67,9.53a12.7,12.7,0,0,1-10.36,1q-4.14-1.24-7.87-7.25-2.89-5.38-3.73-15.33a3.67,3.67,0,0,0,1.66-1.25,171.65,171.65,0,0,0,38.95-75.6,41.27,41.27,0,0,0,1.24-17.19q-.83-6.21-3.94-9.74-4.56-5.16-12-4.14-5.6,1.05-11,7.25a61.57,61.57,0,0,0-7,11.6,155.79,155.79,0,0,0-8.49,21.55,220.8,220.8,0,0,0-9.74,43.08q-4.14,30.87,4.35,45.16,5.79,10.14,14.29,12.63,11,3.1,19.89-2.49,7-4.35,11.8-13.88c2.2-4.32,2.77-8.38,4.22-13.84-.5-1.2.26-3.23-.23-4.43"/>
    <path d="M417.11,107c-.14-1-.35-2.69-.62-5.18a7.48,7.48,0,0,0-.42-1.86c.14-.27-1-1-3.31-2.28q-5.4-3.1-10.56.83-5.81,4.55-9.95,15.12a59.65,59.65,0,0,0-4.76,20.92q-.42,9.74,2.69,13.25c2.07,2.36,4,3.25,5.8,2.7q3.3-1,7.66-6.84a65.66,65.66,0,0,0,7.25-12.42,81,81,0,0,0,4.56-11.39c.13-.55.27-1,.41-1.45V117q.63-5.39,1.24-8.7a2.34,2.34,0,0,1,.21-1,.19.19,0,0,0-.16-.21h0m10.57-6a.63.63,0,0,1,.41.21,6.43,6.43,0,0,1,1.87,4.14,10.4,10.4,0,0,1-.63,4.35,10.23,10.23,0,0,1-1,2.49l-.2,1c-.84,4.43-1.25,6.7-1.25,6.84q-.42,3.52-.62,7c-.28,2.63-.41,4.15-.41,4.56a42.76,42.76,0,0,0,1.65,13.26q2.28,5.6,6.84,6.83a8.08,8.08,0,0,0,7.66-2.07q3.74-3.31,7.45-11.39a127.25,127.25,0,0,0,5.6-15.95q3.93-12.44,4.35-13.47a5.54,5.54,0,0,1,10.26-.41,5.14,5.14,0,0,1,.1,4.14q-.21.83-3.94,13.05a151.35,151.35,0,0,1-6.22,17.4q-4.56,10.14-10.35,15.12-8.08,7-17.81,4.35-10.36-2.9-14.3-13.88a19.22,19.22,0,0,1-1-3.31,38,38,0,0,1-3.52,5.17q-6.42,8.7-13.47,10.77-9.74,2.91-17.6-6.41-5.79-6.84-5.17-20.93a76.14,76.14,0,0,1,5.58-24.44Q387.28,96,395.36,89.61q11-8.3,22.79-1.87c4.42,2.63,7.24,5.32,8.49,8.08a28.63,28.63,0,0,1,1,4.56Z"/>
    <path d="M491.25,194.84a19.52,19.52,0,0,1-4,6.21,9.07,9.07,0,0,1-3.42,2.38,4.27,4.27,0,0,1-2.07.1,4.81,4.81,0,0,1-2.58-2.07,5.82,5.82,0,0,1-.72-4.35q1-9.12,12.21-17.81l5.81-4.14q-1.87,12.42-5.19,19.67m40.41-58.71c-.15-.17-.3-.34-.47-.5s-.45-.41-.68-.62l-.08-.08-.11-.06c-.48-.31-1-.63-1.47-.9-.27-.14-.53-.27-.81-.39h0l-.45-.17a7.9,7.9,0,0,0-1-.27L526,133a4.58,4.58,0,0,0-.53,0l-.63,0a8.19,8.19,0,0,0-1.2.33l-.32.14q-.41.23-.78.48l-.35.25c-.2.17-.4.34-.6.53a13.28,13.28,0,0,0-1.21,1.28c-.18.2-.34.4-.51.61.3-.4-.31.44-.37.51a3.08,3.08,0,0,1-.5.52,54.87,54.87,0,0,1-9.93,14.08q.18-7.66.1-19.89t.1-17.18q0-1.25.63-9.54c.13-2.48.27-4.34.4-5.58V95.22c-.14-.28-.31-.66-.52-1.14a8.74,8.74,0,0,0-.72-1.35,5.35,5.35,0,0,0-4.77-2.07,5.23,5.23,0,0,0-3.51,1.45,5.8,5.8,0,0,0-1.46,2.28c-.13.41-.34,1-.61,1.66s-.56,2.48-1.25,5q-2.3,8.92-3.52,12.85a215.78,215.78,0,0,1-8.9,24,62.24,62.24,0,0,1-6.42,11.6q-3.12,3.93-5.6,4.55a3.31,3.31,0,0,1-2.7-.21,5.41,5.41,0,0,1-1.86-2.69q-2.07-5.59-1.23-17.6t6-35.83a5.14,5.14,0,0,0-.62-4.25,5.65,5.65,0,0,0-7.78-1.77,5.11,5.11,0,0,0-2.37,3.53q-5.6,24.66-6.42,37.7-.84,14.29,2.07,22a16.2,16.2,0,0,0,6.21,8.49q4.77,2.9,11.19,1.44,6.21-1.23,11.81-8.49a67.15,67.15,0,0,0,8.07-13.67l2.7-6.42q0,12.44-.21,20.3c-.15,1.52-.21,3-.21,4.35l-2.08,1.44q-8.49,5.6-11.8,8.08-14.91,11.6-16.57,25.48a17.16,17.16,0,0,0,2.59,11.8,14.19,14.19,0,0,0,9.42,6.63,15.3,15.3,0,0,0,12.23-2.38q5.79-3.84,9.74-12.12,5.58-11.81,7.23-32.73c1.67-1.24,3.18-2.48,4.56-3.73a62.25,62.25,0,0,0,16.17-20.71c.9-2,1.8-4.09,2.64-6.33l-.15-.19"/>
    <path d="M528.45,73.37q-7.87,1-13.57-2.8a20.16,20.16,0,0,1-8-10.46,21.83,21.83,0,0,1-.83-12.74,22.68,22.68,0,0,1,6.63-12.12q5.81-5.17,19.26-8.7a240.38,240.38,0,0,1,26.1-4.35q1-.21,26.72-2.7,14.51-1.44,20.3-2.48,4.15-1,15.12-4.56l7-2.48,2.48-.62a10.28,10.28,0,0,0,1-.42H632a6.63,6.63,0,0,1,1.66.21,6.37,6.37,0,0,1,3.1,2.28,6.75,6.75,0,0,1,.42,6.83,7.81,7.81,0,0,1-2.28,3.1,12.41,12.41,0,0,0-1.24,1,3.36,3.36,0,0,1-.62.52c-.14.07-.21.14-.21.2s-.07.1-.21.1q-13.47,19.49-17.81,35.22-2.07,8.07-3.53,25.89-1.65,21.74-2.9,29.2a106.44,106.44,0,0,1-3.62,14.4,69.63,69.63,0,0,1-5.9,12.94,40.82,40.82,0,0,1-9.94,11.4,48.87,48.87,0,0,1-14.5,7.87,37.1,37.1,0,0,1-12.22,2.38,36,36,0,0,1-10.88-1.34,42.61,42.61,0,0,1-9.94-4.56,67.56,67.56,0,0,1-8.8-6.32q-3.74-3.21-7.87-7.56a5.48,5.48,0,0,1-1.66-4,5.14,5.14,0,0,1,1.66-3.93,5.71,5.71,0,0,1,4-1.56,4.87,4.87,0,0,1,3.83,1.66q10.36,10.56,19.16,14.5t19,.41q12.21-4.54,18.22-14t8.29-24.13q1.23-7,2.9-28.17,1.23-18.44,3.93-28Q608,41,618.14,24.88a77,77,0,0,1-11,2.9q-6.23,1.45-21.34,2.9-21.54,2.07-26.51,2.69a171.18,171.18,0,0,0-24.65,4.14q-10.56,2.49-14.08,6A10.63,10.63,0,0,0,517,49.74a11,11,0,0,0,.52,6.62q2.28,6.84,9.32,5.8a5.91,5.91,0,0,1,4.14,1.14,5.18,5.18,0,0,1,2.18,3.62,5.72,5.72,0,0,1-4.66,6.42"/>
    <path d="M643.89,112.35q-.42,12.23-5,20.3a50.17,50.17,0,0,1-10.67-21.34q-2.81-12,1.76-21.13c.55-1.24,1-2.28,1.45-3.1q.21-.42.42-.42c1.65-1,3-1.16,4.14-.62,1.37.42,2.62,1.73,3.73,3.94q4.75,8.07,4.14,22.37m-25.27,30.24a11.84,11.84,0,0,1-9.32-8.91q-2.09-8.07,1.44-19.67a66.54,66.54,0,0,1,5.19-12.64A53.9,53.9,0,0,0,619.75,122a61,61,0,0,0,10.67,18.12l.83.82q-5.38,3.12-12.63,1.66m68.14-40.7a5.5,5.5,0,0,0-1.73-1.73l-.55.11-.18.07,0,0a12.87,12.87,0,0,0-1.41.89l-.39.3-.64.55c-.4.37-.79.75-1.17,1.13a17.85,17.85,0,0,0-1.94,2.14,31.71,31.71,0,0,0-1.81,3.28c-.55,1.16-1.12,2.29-1.67,3.44-.05.1-.09.22-.15.32h0c-.23.55-.45,1.09-.69,1.63s-.52,1.2-.81,1.8-.43,1.48-.69,2.42c-.55,2-1,3.56-1.45,4.66s-1,2.49-1.76,4.14-1.62,3.31-2.59,5q-5.79,10.36-13.25,9.94a15.17,15.17,0,0,1-6.22-1.86q6.84-11,7.46-27.13.82-17.4-5.59-28.59-3.74-6.63-9.33-8.7l-2.06-.82a5.45,5.45,0,0,0-5.19-2.08q-10.77,1.86-20.3,13.67A71.27,71.27,0,0,0,600,110.69q-4.35,14.72-1.45,25.89,3.94,14.08,18,16.78Q630,156.26,640,148.6a28.48,28.48,0,0,0,13.26,4.56q14.5.61,23.82-15.75c1-1.79,1.89-3.65,2.8-5.59s1.62-3.59,2.17-5a54.68,54.68,0,0,0,1.76-5.39c.63-2.21,1-3.79,1.25-4.76s.62-2.76,1.24-5.39,1-4.35,1.14-5.18a5.11,5.11,0,0,0-.62-4.24"/>
    <path d="M713.77,180.5q-1.87,7.67-6,11.6a6.25,6.25,0,0,1-3.31,1.65q-1.87.21-4.35-1.65-3.74-2.7-2.08-9.11,1.66-7.06,6.22-10.78a54.36,54.36,0,0,1,8.28-5.38l3.32-1.66a116.42,116.42,0,0,1-2.07,15.33m2.48-83.89a178.36,178.36,0,0,1-2.69,17.81,49,49,0,0,1-4.35,10.88,39.09,39.09,0,0,1-7.14,9.84q-4.05,3.93-7.57,4.35-3.93.4-7.87-3.1-4.77-4.37-2.69-15.54a61.07,61.07,0,0,1,9.94-22.78q7.46-10.57,13.88-12.23a4.39,4.39,0,0,1,3.52.63q2.49,1.65,4.56,6.83a5.14,5.14,0,0,0,.62,1.24q-.21,1.67-.21,2.07m40.91,4.77a5.14,5.14,0,0,0-3.62-2.18,5.55,5.55,0,0,0-2.74.31c-.53,3.19-.4,6.52-1.69,9.58a48.29,48.29,0,0,1-3.9,7.35,12,12,0,0,1-.58,2.13q-4.77,10.77-16.36,22.57,1-31.89-.62-49.91v-.62l-.21-.42-.62-1.66a6.44,6.44,0,0,0-1.24-1.65.63.63,0,0,0-.42-.21,22.23,22.23,0,0,0-7.46-9.53,14.49,14.49,0,0,0-12.63-2.07q-10.56,2.49-20.3,16.57A70.22,70.22,0,0,0,673,118.78q-3.11,17.39,6.21,25.88,7.88,7.05,16.79,6,7.23-1,13.87-7.66a43.57,43.57,0,0,0,7.46-9.53q-.21,9.53-.63,17.81l-.82.62q-2.28,1.67-8.7,5.28a89.43,89.43,0,0,0-9.95,6.32q-7.46,6.23-10.14,17-3.33,13.67,6.41,20.71,6,4.35,12,3.73a17.61,17.61,0,0,0,9.95-4.76q6.63-6.21,9.12-17.19,2.06-8.28,3.1-26.1a120,120,0,0,0,15.84-15.95A79.66,79.66,0,0,0,755,123.13a60,60,0,0,0,2.07-9.53c.14-1,.32-2,.52-3.21s.38-2.24.52-3.21.21-1.52.21-1.66a5.94,5.94,0,0,0-1.14-4.14"/>
    <path d="M757.18,114.42a12,12,0,0,0,10.14,1.25q6.42-2.28,11.19-9.53,4.54-7,4.14-13.26-.21-5.38-5-6.84-5.59-2.06-11.6,6-6.84,8.89-8.91,22.36m-.2,12a21.13,21.13,0,0,0,3.1,9.73q5.17,7.67,17.81,4.77,10.35-2.49,16.16-13.46a83.91,83.91,0,0,0,3.73-8.19q1.65-4.25,3.52-9.84t3.32-9.52a5.58,5.58,0,0,1,10.25-.21,5.66,5.66,0,0,1,.1,4.35l-2.9,8.7c-1.38,3.86-2.7,7.46-3.94,10.77a83.35,83.35,0,0,1-4.14,9.32q-8.09,15.34-23.61,18.85-20.1,4.77-29.42-9.32-7.46-11-4.76-29,2.28-16.78,11-28.18a30.72,30.72,0,0,1,11-9.21,17.25,17.25,0,0,1,13.26-.73q11.8,4.16,12.43,17,.61,9.94-6,20.1-6.83,10.56-17,13.87a22.66,22.66,0,0,1-13.87.21"/>
    <path d="M808.63,72.17a99,99,0,0,1-14.5-2.49,5.09,5.09,0,0,1-3.52-2.38,5.65,5.65,0,0,1,1.76-7.77,5.14,5.14,0,0,1,4.25-.62,118.72,118.72,0,0,0,14.29,2.28q3.93-17,9.53-36a5.36,5.36,0,0,1,2.69-3.21,5.49,5.49,0,0,1,4.25-.52,5.36,5.36,0,0,1,3.31,2.69,5.66,5.66,0,0,1,.52,4.35q-5.19,17-8.7,32.73a95.55,95.55,0,0,0,14.29-2.07,5.14,5.14,0,0,1,4.25.62,5.48,5.48,0,0,1,2.49,3.52,5.4,5.4,0,0,1-.74,4.25,5,5,0,0,1-3.51,2.38A111.77,111.77,0,0,1,820,72.59q-7,34.17-4.76,53a28.07,28.07,0,0,0,3.21,10.88q2.38,4,5.07,5.07,6.23,2.28,13.06-9.12Q844.06,120,848.4,97a6.44,6.44,0,0,1,2.49-3.63,4.9,4.9,0,0,1,4.14-.83A6,6,0,0,1,858.66,95a5.26,5.26,0,0,1,.93,4.15q-5,25.07-13.46,39.15-5.4,8.9-12.33,12.74a16.34,16.34,0,0,1-14.18,1.13,21.27,21.27,0,0,1-10.57-9.32,40.74,40.74,0,0,1-5-15.94q-2.49-20.52,4.56-54.69"/>
    <path d="M863.28,48.55a51,51,0,0,1,3.94-14.91q2.89-6.63,6-5.59c1.1.41,1.72,1.65,1.86,3.73q.4,4.14-1.86,11.18a70.87,70.87,0,0,1-5,12.22,61,61,0,0,1-5.17,8.7,13.85,13.85,0,0,1-1.66,2.28q.62-9.33,1.86-17.6m74.49,49.88a35.28,35.28,0,0,0-8.53,5.56c0,.1,0,.18-.09.28q-1.86,6.42-2.9,9.32A96.64,96.64,0,0,1,920,127.27q-7,11.8-13.88,11c-1.79-.14-3.1-1.93-3.93-5.39s-1.18-9.73-1-18.43q.42-16-.2-20.92Q899.33,80,890.63,78q-8.08-2.07-16.57,5Q868,87.71,862.25,97L860,100.75q.19-8.48.62-16.15A35.45,35.45,0,0,0,866,82.11a27.25,27.25,0,0,0,6.22-6,81.1,81.1,0,0,0,7.25-11.81,111.38,111.38,0,0,0,6.83-15.74q3.3-10.16,2.69-17.2-.83-10.56-9.73-13.66-7.47-2.91-12.74,1.24a29,29,0,0,0-8.39,10.77,74.28,74.28,0,0,0-5.59,20.1q-4.15,29.63-4.14,79.12-.21,2.28-.42,6.83,0,1.25-.21,9.33A5.78,5.78,0,0,0,849.2,149a5.28,5.28,0,0,0,4.76,2.69,5.65,5.65,0,0,0,5.6-5.59v-17.4a82.17,82.17,0,0,1,4.35-11.39A107.85,107.85,0,0,1,871.58,103q5-7.87,9.52-11.6,4.14-3.31,6.63-2.69c.83-.14,1.51,1.86,2.07,6q.62,4.56.21,19.47-.21,14.31,1.45,21.13,2.89,12.84,13.46,14.09,13.88,1.45,24.65-16.37a105.18,105.18,0,0,0,7-15.33,95.83,95.83,0,0,0,3.31-10.35q1.86-6.42,2.9-9.53a5.11,5.11,0,0,0,.3-1.1,25,25,0,0,0-5.35,1.69"/>
    <path d="M938.48,114.42a12,12,0,0,0,10.15,1.25q6.42-2.28,11.19-9.53,4.54-7,4.14-13.26-.21-5.38-5-6.84-5.6-2.06-11.6,6-6.84,8.89-8.91,22.36m-.21,12a21.37,21.37,0,0,0,3.1,9.73q5.18,7.67,17.82,4.77,10.37-2.49,16.15-13.46a79.43,79.43,0,0,0,3.73-8.19q1.66-4.25,3.52-9.84t3.32-9.52a5.57,5.57,0,0,1,10.35,4.14l-2.9,8.7c-1.38,3.86-2.69,7.46-3.94,10.77a79.86,79.86,0,0,1-4.14,9.32q-8.07,15.34-23.61,18.85-20.08,4.77-29.41-9.32-7.46-11-4.76-29,2.26-16.78,11-28.18a30.55,30.55,0,0,1,11-9.21,17.24,17.24,0,0,1,13.26-.73q11.81,4.16,12.43,17,.61,9.94-6,20.1-6.84,10.56-17,13.87a22.66,22.66,0,0,1-13.87.21"/>
    <path d="M998.75,73.62a108.61,108.61,0,0,0,17.19,2.69h.2a5.39,5.39,0,0,1,1.87-.21c3.32-.41,5.8.56,7.46,2.9a6.67,6.67,0,0,1,1.24,4.14,24.17,24.17,0,0,1-.21,2.69c-.14,1.25-.48,3.11-1,5.6l-2.08,7.66q-1.44,5.4-2.06,8.08a151.57,151.57,0,0,0-3.32,16.77q-1.25,8.1,0,11.61a9.28,9.28,0,0,0,2.7,4.35,5.27,5.27,0,0,0,4.14,1.45q7.44-.42,14.08-14.71a117.17,117.17,0,0,0,8.29-25.48,4.72,4.72,0,0,1,2.17-3.62,4.83,4.83,0,0,1,4-.83,5.81,5.81,0,0,1,3.42,2.48,4.53,4.53,0,0,1,.72,4,133,133,0,0,1-8.9,28.17q-9.33,20.31-23.41,21.13a14.73,14.73,0,0,1-11.18-3.83,21.74,21.74,0,0,1-6.53-9.94q-1.77-5.7-.31-16.27a145.56,145.56,0,0,1,3.52-18q.82-2.68,2.07-8.08l1.87-7.45.41-1.65a103.76,103.76,0,0,1-13.26-1.66l-.82,4.55c-.42,1.8-.77,3.11-1,3.94a13.52,13.52,0,0,1-.62,1.86l-1.45,4.14c-.7,1.8-1.45,3.66-2.28,5.6a5.39,5.39,0,0,1-2.8,3.21,4.83,4.83,0,0,1-4,.1,5.37,5.37,0,0,1-3-2.9,5.09,5.09,0,0,1-.1-4.15q1-3.09,2-5.69c.63-1.72,1.08-2.9,1.35-3.52a11.15,11.15,0,0,0,.62-1.76c.14-.56.34-1.58.63-3.11l1.65-7.46a2,2,0,0,1,.2-.83,8.35,8.35,0,0,1,.21-1.86,5.17,5.17,0,0,1,2.29-3.52,4.85,4.85,0,0,1,4.14-.62"/>
    <path d="M151.92,242.53a5.59,5.59,0,0,1-1.9-.33c-8.27-3-17.82-10.23-20.5-19.62-1.72-6-.42-12,3.76-17.3,7.36-9.34,19.48-11.6,30.37-12.58,30.81-2.77,62-.6,92.25,1.49l2.71.18C482.07,209.81,669,213.62,855.19,182c5.43-.93,10.89-1.82,16.34-2.71,32.14-5.26,65.37-10.69,95.71-23.07,31.12-12.69,54.87-34.41,80-57.4l.25-.22a5.59,5.59,0,0,1,7.54,8.26l-.24.21c-25.9,23.69-50.35,46.06-83.32,59.5C940,179.43,906.09,185,873.34,190.33c-5.43.89-10.87,1.77-16.28,2.69-187.23,31.82-374.95,28-599.22,12.51l-2.71-.19c-29.77-2.06-60.55-4.18-90.48-1.5-8.52.77-17.86,2.36-22.59,8.36-1.94,2.46-2.51,4.78-1.78,7.31,1.5,5.26,8.1,10.2,13.54,12.17a5.59,5.59,0,0,1-1.9,10.85"/>
  </g>
</svg>
