<?xml version="1.0" standalone="no"?>
<!DOCTYPE svg PUBLIC "-//W3C//DTD SVG 20010904//EN"
 "http://www.w3.org/TR/2001/REC-SVG-20010904/DTD/svg10.dtd">
<svg version="1.0" xmlns="http://www.w3.org/2000/svg"
 width="400" height="400" viewBox="0 0 400 400"
 preserveAspectRatio="xMidYMid meet">
<metadata>
Created by potrace 1.10, written by Peter Selinger 2001-2011
</metadata>
<g transform="translate(0.000000,300.000000) scale(0.100000,-0.100000)"
fill="#000000" stroke="none">
<path d="M2828 2926 c-20 -20 -118 -27 -125 -9 -10 25 -23 13 -23 -22 l0 -35
63 -2 62 -2 -57 -3 c-76 -5 -75 -23 1 -23 38 0 70 -6 90 -17 28 -16 33 -17 58
-3 41 23 52 63 26 98 -23 31 -73 41 -95 18z m62 -11 c11 7 34 -34 26 -43 -4
-3 -13 4 -22 16 -18 27 -37 28 -55 5 -13 -16 -12 -17 3 -5 15 12 20 11 34 -3
13 -12 14 -19 5 -24 -7 -5 -9 -15 -4 -27 5 -14 0 -11 -19 8 -17 19 -37 29 -62
30 -38 3 -46 12 -21 22 8 3 15 1 15 -4 0 -16 27 -11 34 5 7 18 49 37 54 24 2
-5 8 -7 12 -4z"/>
<path d="M1498 2700 c-4 -14 -8 -33 -8 -42 0 -10 -13 -46 -29 -80 -17 -35 -29
-72 -28 -83 2 -15 -3 -19 -19 -18 -14 2 -24 -4 -27 -17 -3 -11 -18 -25 -34
-31 l-28 -12 35 -11 c44 -14 96 -51 111 -78 9 -17 8 -24 -5 -33 -17 -13 -22
-45 -6 -45 17 0 6 -50 -12 -56 -10 -3 -26 -16 -34 -30 -23 -34 -11 -72 29 -89
25 -11 28 -14 11 -15 -31 0 -63 30 -70 66 -5 26 -1 35 26 57 31 26 31 27 8 28
-22 2 -41 4 -63 8 -5 1 -4 5 4 10 10 6 11 13 2 29 -20 38 -13 51 37 66 37 11
43 15 28 22 -19 7 -107 -11 -140 -30 -23 -13 -76 -70 -93 -100 -6 -11 -15 -38
-18 -58 -12 -68 -34 -39 -41 53 -1 27 2 51 7 55 6 4 5 10 -4 17 -8 7 -17 21
-20 32 -3 11 -13 38 -21 60 -8 22 -15 57 -16 78 0 25 -4 36 -11 31 -7 -4 -9 2
-7 17 1 12 9 24 16 27 8 2 10 -2 5 -15 -6 -16 -5 -16 10 -4 15 12 20 11 36 -4
19 -16 19 -16 14 7 -12 46 -59 51 -110 12 -36 -28 -44 -22 -14 10 20 21 20 21
-56 99 -42 42 -78 76 -80 74 -2 -3 1 -15 5 -28 12 -31 12 -138 1 -145 -17 -10
-9 -24 15 -24 13 0 34 -9 47 -20 26 -21 11 -27 -22 -10 -15 8 -23 7 -35 -5 -8
-8 -22 -15 -31 -15 -16 0 -33 -17 -54 -54 -11 -19 -10 -19 23 1 19 11 45 19
58 17 14 -1 28 -3 33 -3 4 -1 7 -12 7 -25 0 -12 12 -36 26 -51 14 -15 28 -42
30 -58 2 -17 11 -35 20 -40 14 -8 11 -14 -18 -44 -31 -34 -32 -35 -8 -28 14 4
31 10 38 12 6 3 12 0 12 -7 0 -6 7 -18 15 -26 8 -9 15 -24 15 -36 0 -17 -4
-19 -30 -13 -24 5 -34 2 -55 -22 -25 -29 -33 -67 -15 -78 6 -3 10 2 10 13 0
26 31 52 63 52 33 0 43 -16 24 -38 -13 -15 -13 -19 -1 -30 24 -22 16 -31 -36
-38 -30 -4 -64 -17 -85 -33 -37 -28 -85 -111 -85 -147 0 -37 30 -107 58 -137
33 -34 121 -92 129 -84 3 3 -8 14 -24 24 -85 53 -133 108 -133 149 0 17 3 16
20 -6 l20 -25 -6 32 c-4 18 -3 53 0 78 6 36 11 45 27 45 10 0 19 5 19 10 0 6
6 10 14 10 7 0 16 9 19 20 6 24 57 29 57 5 0 -18 21 -20 38 -3 10 10 16 7 30
-12 9 -14 17 -29 17 -35 0 -5 8 -19 18 -30 10 -11 16 -30 14 -42 -2 -12 -1
-20 3 -18 5 3 11 -2 14 -11 9 -22 8 -24 -9 -24 -8 0 -15 4 -15 10 0 5 -5 9
-12 7 -6 -1 -22 19 -34 45 -23 47 -40 65 -51 54 -4 -4 7 -26 24 -50 l32 -45
-34 6 c-30 5 -36 2 -46 -20 -22 -49 22 -108 67 -90 8 3 14 13 14 22 0 13 -2
13 -9 2 -6 -9 -18 -11 -36 -7 -23 6 -26 11 -23 44 2 26 8 38 20 40 13 3 16 -1
12 -15 -5 -15 -4 -15 5 -3 16 23 41 2 76 -63 l30 -57 -27 -25 c-27 -25 -38
-65 -18 -65 6 0 10 5 10 11 0 6 6 16 13 24 20 20 77 -18 77 -51 0 -20 -5 -24
-30 -24 -35 0 -71 -43 -51 -63 8 -8 11 -7 11 5 0 23 26 41 50 33 11 -3 20 -15
20 -25 0 -26 11 -51 20 -45 10 6 46 -22 38 -30 -4 -4 -12 -4 -18 0 -16 10
-130 13 -130 3 0 -5 -15 -6 -34 -3 -25 5 -34 3 -33 -7 1 -36 -5 -49 -27 -58
-48 -18 -48 -150 -1 -222 15 -22 28 -38 31 -36 2 3 -6 28 -18 56 -21 49 -21
55 -8 109 12 46 21 60 46 74 l32 17 6 -30 c10 -48 7 -58 -13 -58 -12 0 -21 8
-24 23 -3 18 -5 16 -6 -7 0 -16 -8 -37 -17 -47 -22 -25 -11 -64 28 -101 39
-36 74 -45 107 -27 30 17 41 63 17 72 -10 4 -16 1 -16 -7 0 -8 6 -16 13 -19
24 -8 -14 -37 -48 -37 -45 0 -95 47 -95 88 0 32 13 42 68 48 30 4 32 3 22 -15
-7 -13 -7 -22 0 -26 5 -3 10 1 10 9 0 11 9 16 28 16 29 0 102 -63 102 -88 0
-7 4 -12 9 -12 5 0 14 -14 20 -30 11 -33 6 -37 -23 -15 -22 17 -36 19 -36 7 0
-5 11 -14 24 -20 28 -13 62 -59 52 -70 -4 -4 -14 2 -22 12 -8 11 -14 16 -14
10 0 -5 7 -18 15 -28 22 -29 18 -59 -10 -90 -41 -44 -94 -53 -132 -23 -9 6
-13 6 -13 -1 0 -17 35 -32 73 -32 26 0 51 12 96 45 34 25 59 50 56 55 -3 6 -1
10 4 10 6 0 11 14 11 30 0 23 5 30 19 30 19 0 19 2 4 40 -17 42 -14 58 9 44 7
-5 22 -10 33 -11 10 -2 22 -7 25 -11 10 -14 36 -6 65 20 16 15 26 30 23 33 -3
4 -16 -3 -27 -14 -24 -24 -34 -26 -49 -8 -21 25 34 187 65 187 9 0 13 6 10 14
-3 8 -1 17 6 20 9 3 8 5 -1 5 -15 1 -2 32 28 66 19 21 35 85 31 123 -1 12 4
25 13 28 9 3 16 12 16 19 0 12 26 22 80 31 41 8 53 -47 19 -90 -11 -14 -16
-26 -10 -26 20 0 51 53 51 89 0 42 -29 81 -60 81 -27 0 -25 19 10 102 16 38
37 98 46 132 8 33 22 71 30 84 13 19 13 22 0 22 -9 0 -20 -15 -25 -32 l-9 -33
-1 33 c-1 18 -5 31 -11 27 -5 -3 -4 9 2 27 12 33 12 33 18 8 6 -24 7 -24 11 7
3 18 2 34 -3 35 -5 2 -2 23 6 48 8 25 17 57 20 73 4 15 11 27 16 27 13 0 13
-10 -5 -60 -8 -24 -13 -45 -11 -47 2 -2 12 17 21 44 42 113 68 182 91 238 34
84 30 91 -11 16 -19 -35 -32 -67 -30 -71 3 -4 -2 -13 -10 -20 -8 -7 -13 -16
-10 -20 3 -4 -2 -13 -10 -20 -17 -14 -20 -3 -5 20 6 9 5 17 -2 21 -6 4 -4 16
7 33 14 20 14 26 4 26 -11 1 -10 4 2 13 9 7 18 17 20 22 2 6 15 27 28 48 19
30 27 36 45 31 11 -4 24 -11 27 -16 3 -5 12 -8 19 -6 8 2 14 -1 15 -7 0 -5 7
-20 14 -33 7 -13 10 -30 7 -39 -12 -31 20 -5 52 41 61 92 37 166 -68 201 -27
9 -50 21 -50 27 0 6 6 8 14 5 8 -3 17 1 20 10 5 11 15 14 39 9 28 -5 30 -4 14
8 -23 18 -101 28 -130 17 -13 -5 -30 -23 -36 -40 l-13 -30 -116 3 c-65 1 -125
-2 -134 -6 -14 -7 -22 -1 -37 23 -11 17 -17 37 -14 45 7 19 35 27 45 12 5 -9
8 -8 8 6 0 16 5 18 45 13 43 -6 62 4 29 17 -32 12 -82 5 -115 -17 -30 -20 -34
-28 -37 -74 -3 -49 -1 -53 26 -67 16 -8 32 -22 35 -30 5 -13 23 -15 102 -10
62 3 95 1 95 -6 0 -17 17 -11 44 13 19 18 23 26 14 35 -9 9 -8 12 3 12 9 0 29
14 44 32 21 23 30 28 33 17 3 -7 9 -23 15 -34 5 -11 6 -17 2 -13 -9 8 -66 -42
-60 -52 3 -5 -2 -10 -9 -13 -8 -3 -17 -1 -20 6 -3 9 -5 9 -5 0 -1 -7 -7 -13
-14 -13 -8 0 -22 -18 -32 -40 -18 -40 -35 -52 -35 -25 0 8 -7 15 -15 15 -20 0
-19 -10 2 -25 27 -20 9 -45 -32 -45 -43 0 -44 -10 -5 -32 33 -19 38 -39 15
-58 -8 -7 -15 -21 -15 -33 0 -18 -5 -19 -47 -14 -39 4 -45 3 -31 -7 14 -10 15
-15 5 -25 -9 -10 -9 -11 4 -6 10 4 22 -3 33 -19 9 -15 12 -26 7 -26 -5 0 -7
-9 -4 -20 4 -14 0 -20 -11 -20 -10 0 -13 -6 -10 -15 4 -8 2 -15 -4 -15 -10 0
-28 90 -24 123 1 9 -3 17 -8 17 -6 0 -19 9 -29 19 -19 19 -54 41 -65 41 -15 0
-4 -18 18 -30 32 -17 50 -63 50 -125 -1 -61 -19 -96 -74 -152 -37 -37 -46 -41
-78 -36 -61 8 -61 7 -60 77 1 55 4 66 18 66 31 0 51 35 48 81 -3 40 -6 44 -30
47 -29 3 -40 34 -18 47 6 4 8 21 4 39 -5 29 -2 36 27 56 31 23 31 24 10 31
-11 5 -21 15 -21 23 0 10 6 13 15 10 8 -4 27 2 42 11 18 12 28 14 31 7 5 -15
39 -16 47 -2 3 6 -3 10 -15 10 -11 0 -32 12 -46 28 -14 15 -32 35 -41 44 -9
10 -17 29 -19 43 -1 14 -7 32 -13 38 -5 7 -11 42 -13 77 -2 47 -5 58 -10 40z
m-2 -237 c-3 -8 -10 -12 -16 -8 -10 6 -4 87 8 115 8 18 15 -87 8 -107z m564
41 c0 -8 6 -14 14 -14 8 0 17 -14 21 -31 8 -35 -1 -52 -12 -23 -8 22 -33 49
-33 37 -1 -4 -7 3 -14 17 -8 14 -12 28 -10 32 7 11 34 -3 34 -18z m-1013 -4
c-3 -11 -1 -23 4 -26 5 -3 7 -9 4 -14 -3 -5 -1 -11 5 -15 14 -9 12 -25 -3 -25
-8 0 -14 -6 -14 -14 0 -7 7 -13 16 -12 9 1 16 -6 16 -14 0 -27 -28 -16 -42 18
-9 23 -10 32 -1 32 6 0 4 8 -6 19 -17 19 -16 30 9 58 15 18 18 16 12 -7z
m1123 -50 c0 -5 -5 -21 -10 -35 -9 -24 -12 -26 -28 -14 -15 13 -16 12 -4 -3
10 -12 11 -22 4 -35 -9 -16 -11 -15 -15 7 -7 37 -6 80 2 80 4 0 11 -3 17 -7 5
-5 -1 2 -14 15 -12 13 -20 27 -17 33 10 15 23 11 28 -8 3 -12 5 -10 6 7 l1 25
15 -29 c8 -15 15 -32 15 -36z m-591 -15 c0 -5 -11 3 -24 18 -14 15 -25 33 -25
40 0 7 11 -1 25 -18 13 -16 24 -34 24 -40z m487 -2 c-1 -2 -17 3 -34 9 -30 11
-41 35 -25 51 6 6 65 -54 59 -60z m-106 4 c-6 -7 -17 -21 -25 -32 -22 -32 -26
-12 -4 23 10 18 24 30 29 27 6 -4 6 -10 0 -18z m-966 -14 c5 -17 3 -29 -6 -34
-17 -11 -21 -4 -24 31 -3 38 21 40 30 3z m461 16 c4 -6 13 -8 21 -5 10 4 14
-2 14 -19 0 -14 -4 -25 -10 -25 -5 0 -10 6 -10 14 0 7 -9 16 -20 19 -11 3 -20
10 -20 16 0 14 17 14 25 0z m-11 -44 c15 -19 23 -35 18 -35 -5 0 -18 11 -28
25 -10 14 -25 25 -32 25 -7 0 -10 5 -7 10 10 17 22 11 49 -25z m-343 -63 c7
-18 5 -22 -11 -22 -15 0 -20 7 -20 26 0 30 19 28 31 -4z m796 -6 c-13 -28 -37
-24 -30 5 3 10 9 16 14 13 5 -3 9 0 9 6 0 6 4 9 9 6 5 -4 4 -16 -2 -30z m-836
-26 c10 0 21 -9 24 -21 9 -28 -1 -35 -15 -10 -6 12 -17 21 -24 21 -8 0 -17 8
-21 18 -5 14 -4 15 6 5 7 -7 21 -13 30 -13z m234 -29 c-7 -13 -65 -41 -65 -33
0 8 51 41 63 42 5 0 6 -4 2 -9z m592 -34 c-2 -12 -9 -34 -15 -49 -7 -16 -16
-39 -22 -53 -8 -22 -40 -36 -40 -18 0 16 25 73 32 73 4 0 5 7 2 15 -8 19 23
68 37 60 5 -4 8 -16 6 -28z m-797 -26 c6 -13 7 -28 1 -43 -6 -13 -10 -17 -10
-9 -1 7 -9 21 -18 30 -10 9 -18 26 -19 38 0 18 3 20 18 12 9 -5 22 -18 28 -28z
m246 8 c3 -6 1 -15 -6 -19 -9 -6 -6 -10 9 -15 15 -5 29 -1 44 12 l21 18 -21
-36 -20 -36 21 -44 c16 -34 27 -45 51 -49 28 -5 30 -8 31 -52 0 -27 -2 -48 -4
-48 -3 0 -24 15 -48 33 -49 37 -94 101 -94 134 0 13 -4 23 -8 23 -6 0 -9 73
-3 88 3 6 21 1 27 -9z m-46 -39 c0 -5 -13 -16 -30 -25 -38 -19 -40 -6 -2 17
32 21 32 21 32 8z m-177 -64 c-3 -5 -2 -6 4 -3 15 10 60 -44 68 -80 7 -37 13
-40 41 -17 18 14 18 15 -6 9 -24 -6 -24 -5 -5 10 17 13 20 14 28 0 10 -19 1
-35 -20 -35 -10 0 -14 -6 -10 -20 3 -11 1 -23 -4 -26 -13 -8 -3 -83 14 -103
32 -37 48 -125 25 -134 -8 -4 -7 -6 3 -6 20 -1 31 -35 16 -50 -8 -8 -7 -11 3
-11 7 0 10 -3 7 -6 -4 -4 2 -14 12 -23 13 -11 19 -28 17 -49 -1 -18 1 -32 6
-32 4 0 8 -9 8 -19 0 -11 5 -32 12 -48 6 -15 10 -32 9 -36 -1 -4 6 -15 14 -23
8 -9 13 -19 10 -24 -3 -5 -1 -11 5 -15 5 -3 10 -15 10 -26 0 -10 3 -19 8 -19
4 0 8 -28 9 -63 1 -34 8 -72 14 -84 10 -18 15 -20 35 -11 19 9 24 19 24 50 0
21 4 38 9 38 11 0 44 68 37 78 -3 5 8 24 24 43 16 19 29 42 30 52 0 9 4 17 8
17 4 0 13 20 20 45 7 25 16 45 22 45 5 0 10 8 10 18 0 9 16 67 35 127 19 61
47 152 61 203 15 50 30 92 35 92 4 0 3 -15 -2 -32 -6 -18 -17 -54 -25 -80 -8
-27 -21 -70 -29 -98 -8 -27 -21 -71 -29 -97 -8 -27 -19 -63 -25 -80 -6 -20 -6
-33 0 -33 5 0 9 5 9 11 0 5 4 8 9 4 5 -3 12 4 16 15 3 11 11 20 16 20 14 0 -1
-51 -25 -85 -29 -39 -45 -84 -43 -115 1 -14 -5 -33 -13 -42 -9 -9 -24 -42 -34
-72 -11 -31 -27 -63 -38 -72 -10 -10 -18 -21 -18 -26 0 -6 -9 -21 -20 -35 -11
-14 -17 -29 -14 -34 3 -5 0 -9 -7 -9 -7 0 -9 -10 -7 -24 4 -20 1 -24 -16 -23
-12 0 -27 5 -33 10 -9 6 -18 5 -28 -3 -8 -7 -15 -9 -15 -4 -3 65 -36 138 -74
166 -6 4 -5 12 2 21 10 11 7 20 -13 41 -14 15 -25 29 -25 32 0 11 21 2 39 -17
12 -13 21 -17 26 -10 3 6 1 11 -6 11 -6 0 -9 8 -6 19 3 12 -9 43 -29 76 -39
64 -41 75 -16 75 14 0 15 2 2 10 -8 5 -11 12 -8 16 4 3 -6 20 -22 37 -16 17
-26 34 -21 37 13 9 21 40 10 40 -6 0 -5 8 2 21 9 17 8 23 -2 30 -12 7 -11 9 1
9 10 0 7 5 -8 16 -12 8 -22 23 -21 32 0 10 3 12 6 5 12 -32 20 -8 11 35 -13
57 -13 58 -35 41 -9 -8 -14 -9 -10 -3 6 11 -16 87 -24 80 -2 -3 -15 4 -29 14
-19 14 -24 26 -22 57 1 34 -4 54 -27 103 -11 22 8 88 19 70 5 -8 6 -18 3 -24z
m714 -34 c-10 -10 -17 -23 -17 -29 0 -6 -7 -13 -15 -17 -17 -6 -19 3 -5 38 6
17 17 26 31 26 21 0 21 -1 6 -18z m-68 -34 c0 -7 -8 -35 -18 -63 -13 -38 -23
-51 -41 -53 l-23 -4 20 29 c11 15 26 45 32 66 12 35 32 52 30 25z m-414 -28
c3 -6 -6 -15 -20 -20 -18 -7 -25 -15 -21 -25 6 -16 -28 -40 -44 -30 -16 10
-11 23 10 30 11 4 18 10 15 15 -3 5 7 16 22 24 34 19 31 18 38 6z m463 -22
c-4 -28 -23 -26 -24 2 -1 11 5 20 13 20 9 0 13 -8 11 -22z m-128 -23 c-7 -14
-20 -25 -27 -25 -10 0 -7 9 8 30 26 35 38 31 19 -5z m-426 -47 c39 -41 76 -68
91 -68 8 0 16 -8 16 -17 1 -16 2 -16 6 0 5 18 6 18 24 1 10 -9 19 -12 19 -6 0
6 13 10 30 9 28 -2 30 -4 30 -44 0 -24 -4 -43 -10 -43 -5 0 -10 -7 -10 -15 0
-13 -4 -14 -21 -4 -17 9 -25 8 -38 -6 -15 -15 -15 -16 2 -9 23 9 59 -23 55
-50 -1 -12 1 -27 6 -35 10 -16 -12 -33 -33 -26 -9 3 -11 0 -7 -10 3 -9 -3 -19
-14 -25 -29 -16 -43 -12 -37 10 3 10 -1 24 -7 30 -17 13 -65 137 -69 175 -1
17 -10 41 -19 55 -22 33 -50 100 -42 100 4 0 16 -10 28 -22z m77 2 c-25 -22
-41 -26 -41 -10 0 11 30 29 50 29 10 0 8 -6 -9 -19z m101 3 c-6 -2 -10 -9 -7
-13 7 -12 -41 -43 -57 -38 -8 3 -1 11 17 21 17 9 26 16 22 17 -5 0 -5 5 -2 10
3 6 14 10 23 9 11 0 12 -2 4 -6z m266 -61 c3 -27 -1 -35 -17 -39 -23 -6 -29
-23 -8 -24 9 0 9 -2 -1 -6 -8 -3 -10 -9 -4 -16 6 -7 6 -21 1 -36 -7 -17 -14
-21 -27 -16 -37 16 -59 16 -71 1 -15 -18 -1 -22 16 -5 8 8 14 6 21 -7 11 -21
10 -109 -1 -120 -4 -4 -7 -16 -7 -26 0 -10 -11 -23 -25 -30 -18 -8 -22 -15
-15 -28 6 -10 4 -25 -5 -41 -16 -27 -23 -42 -30 -65 -4 -14 -8 -14 -22 -3 -15
13 -15 12 -2 -10 10 -18 11 -25 2 -28 -7 -2 -10 -12 -7 -21 5 -14 3 -13 -10 2
-9 11 -12 22 -7 25 5 3 7 32 6 64 -3 49 0 62 17 79 15 15 17 20 5 15 -21 -8
-26 12 -24 94 2 72 24 113 55 102 10 -5 13 -3 7 6 -4 7 -18 11 -31 8 -23 -4
-24 -2 -24 49 0 30 5 54 10 54 6 0 10 -8 11 -17 0 -15 2 -15 9 2 8 18 9 18 10
-5 1 -23 2 -24 11 -5 5 11 23 28 39 37 28 16 30 16 31 0 1 -16 2 -15 6 1 2 9
11 17 19 17 8 0 14 7 14 16 0 10 7 14 23 12 17 -2 23 -11 25 -36z m120 -71
c-8 -25 -19 -46 -26 -49 -16 -5 -16 13 1 30 14 15 19 51 6 42 -5 -3 -9 0 -9 5
0 6 4 11 10 11 5 0 7 6 4 14 -3 8 0 25 8 38 13 23 13 22 16 -12 1 -19 -3 -55
-10 -79z m-59 -165 c-21 -46 -39 -60 -39 -31 0 9 7 18 15 21 9 4 14 11 13 18
-3 19 26 72 30 54 2 -9 -7 -37 -19 -62z m-564 52 c24 -11 34 -28 16 -28 -11 0
-59 39 -49 40 4 0 19 -5 33 -12z m20 -58 c9 -16 11 -30 6 -30 -11 0 -31 32
-31 49 0 19 9 12 25 -19z m231 -71 c2 -26 -25 -89 -38 -89 -12 0 -10 14 5 29
10 10 9 11 -4 6 -12 -5 -18 1 -23 21 -6 22 -3 32 16 46 29 22 43 18 44 -13z
m-1 -207 c-8 -9 -13 0 -26 49 -11 40 -10 48 7 74 l19 29 3 -73 c2 -40 0 -76
-3 -79z m41 -58 c-5 -18 -10 -24 -17 -17 -6 6 -7 22 -3 37 4 18 10 24 17 17 5
-5 6 -22 3 -37z m-284 -7 c13 -15 21 -16 37 -8 23 13 34 0 45 -55 4 -20 15
-34 26 -37 11 -3 24 -18 30 -34 5 -15 15 -36 21 -46 22 -39 -2 -27 -53 25 -43
45 -61 57 -96 62 l-43 6 5 48 c4 34 3 40 -3 22 -9 -24 -9 -24 -10 8 -1 35 13
39 41 9z m244 -73 c-3 -9 -6 -20 -6 -25 0 -5 -4 -9 -10 -9 -5 0 -10 11 -10 25
0 16 6 25 16 25 11 0 14 -5 10 -16z m-16 -182 c0 -28 -3 -33 -10 -22 -13 20
-13 73 0 65 6 -3 10 -23 10 -43z"/>
<path d="M1505 1578 c-15 -31 -14 -32 1 -10 9 12 25 22 35 22 11 0 19 5 19 10
0 25 -40 8 -55 -22z"/>
<path d="M1178 559 c2 -48 -1 -85 -7 -93 -9 -11 -5 -15 16 -19 32 -6 44 0 24
12 -10 6 -12 19 -7 45 8 43 19 39 47 -15 20 -39 43 -58 57 -45 3 4 2 10 -3 14
-6 4 -18 21 -28 39 -17 31 -17 33 3 53 24 24 25 38 4 68 -12 17 -25 22 -62 22
l-47 0 3 -81z m86 52 c11 -18 -13 -61 -34 -61 -16 0 -20 7 -20 35 0 30 3 35
24 35 14 0 27 -4 30 -9z"/>
<path d="M1865 618 c3 -13 1 -30 -5 -38 -9 -13 -12 -12 -25 5 -9 11 -13 25
-11 32 4 9 -5 13 -30 13 l-35 0 37 -45 37 -46 -23 -42 c-13 -23 -31 -47 -39
-54 -14 -10 -11 -12 17 -13 21 0 32 5 31 13 -3 22 1 42 11 57 8 13 11 12 25
-5 8 -11 13 -29 10 -40 -4 -18 0 -20 30 -17 24 3 32 8 28 18 -3 8 -9 14 -14
14 -5 0 -17 16 -27 36 -17 34 -18 40 -4 68 8 17 24 39 36 48 21 17 21 18 -17
18 -34 0 -37 -2 -32 -22z"/>
<path d="M2140 630 c0 -5 4 -10 10 -10 6 0 5 -10 -2 -25 -6 -14 -14 -25 -17
-25 -11 0 -32 41 -26 50 4 6 -10 10 -31 10 l-36 0 31 -32 c17 -17 33 -40 36
-49 7 -22 -20 -78 -49 -101 -21 -17 -21 -18 17 -18 20 0 37 5 37 10 0 6 -5 10
-10 10 -6 0 -3 14 6 32 l16 31 19 -24 c21 -27 24 -39 8 -39 -5 0 -8 -4 -5 -8
3 -4 21 -6 42 -4 20 3 32 7 27 11 -6 3 -24 25 -41 49 l-30 43 20 39 c11 21 30
43 42 48 18 9 15 11 -21 11 -24 1 -43 -3 -43 -9z"/>
<path d="M810 621 c0 -5 4 -11 10 -13 5 -1 22 -38 37 -81 21 -62 24 -80 14
-87 -9 -5 0 -9 23 -12 32 -4 35 -2 30 19 -6 22 29 137 48 160 20 25 36 -11 39
-91 3 -60 0 -79 -11 -86 -10 -7 5 -10 47 -10 51 0 64 3 73 19 12 24 13 41 1
41 -5 0 -11 -9 -14 -20 -4 -15 -14 -20 -36 -20 -29 0 -31 2 -31 40 0 43 20 55
39 23 8 -15 10 -11 11 20 0 35 -1 37 -16 23 -23 -24 -31 -20 -36 19 -4 34 -3
35 28 35 23 0 34 -5 37 -17 3 -12 5 -8 6 9 1 23 -3 27 -36 31 -70 9 -153 8
-153 -2 0 -5 5 -11 11 -13 8 -3 7 -20 -5 -61 -9 -31 -18 -57 -20 -57 -2 0 -13
27 -24 59 -15 43 -17 62 -9 70 8 8 1 11 -26 11 -20 0 -37 -4 -37 -9z"/>
<path d="M1349 603 c29 -41 67 -156 52 -161 -23 -8 -10 -17 24 -17 36 0 42 4
26 21 -11 11 36 164 50 164 5 0 9 5 9 10 0 6 -13 10 -30 10 -28 0 -42 -14 -20
-22 10 -3 -17 -108 -28 -108 -14 0 -41 105 -30 118 8 9 1 12 -31 12 l-42 0 20
-27z"/>
<path d="M1524 619 c-3 -6 -2 -14 3 -18 15 -10 17 -163 1 -172 -8 -5 12 -9 50
-9 58 0 63 2 73 26 5 15 7 30 3 33 -4 3 -9 0 -11 -7 -3 -6 -9 -10 -14 -7 -5 4
-6 -1 -3 -9 5 -12 -1 -16 -25 -16 -30 0 -31 2 -31 40 0 43 20 55 39 23 8 -15
10 -10 11 21 0 39 0 39 -20 21 -24 -21 -28 -19 -36 23 -6 30 -5 32 21 32 15 0
34 -8 41 -17 12 -16 13 -16 14 8 0 22 -6 28 -31 33 -47 9 -77 7 -85 -5z"/>
<path d="M1985 616 c-18 -10 -20 -20 -17 -95 2 -61 -1 -87 -10 -92 -8 -6 3 -8
27 -8 22 0 34 3 28 6 -16 6 -18 170 -3 175 5 2 6 8 2 14 -5 7 -13 7 -27 0z"/>
<path d="M1145 340 c-3 -4 1 -11 7 -13 10 -4 9 -8 -2 -16 -10 -7 -11 -11 -2
-11 6 0 12 -4 12 -10 0 -5 -8 -10 -17 -10 -12 0 -14 -3 -7 -10 20 -20 42 0 41
35 -1 33 -20 54 -32 35z"/>
<path d="M1228 305 c4 -39 7 -45 26 -45 19 0 22 4 18 30 -2 17 -10 30 -18 30
-8 0 -14 7 -14 15 0 8 -3 15 -8 15 -4 0 -6 -20 -4 -45z"/>
<path d="M1470 305 c0 -49 16 -62 23 -17 l4 27 2 -27 c0 -16 6 -28 11 -28 16
0 12 50 -5 56 -8 4 -15 12 -15 20 0 8 -4 14 -10 14 -5 0 -10 -20 -10 -45z"/>
<path d="M1796 335 c-9 -9 -16 -23 -16 -30 0 -18 29 -47 43 -42 21 7 19 26 -2
20 -17 -4 -21 -1 -21 22 0 23 4 26 21 22 12 -3 19 -1 16 6 -6 18 -24 19 -41 2z"/>
<path d="M1088 300 c2 -22 8 -40 13 -40 5 0 9 18 9 40 0 26 -5 40 -13 40 -9 0
-11 -12 -9 -40z"/>
<path d="M1335 300 c0 -27 4 -40 13 -40 9 0 12 6 8 16 -3 9 -6 27 -6 40 0 13
-3 24 -8 24 -4 0 -7 -18 -7 -40z"/>
<path d="M1380 330 c0 -5 8 -6 17 -3 13 5 15 3 9 -13 -12 -28 -20 -60 -14 -54
3 3 13 22 21 43 16 37 16 37 -9 37 -13 0 -24 -4 -24 -10z"/>
<path d="M1560 316 c0 -13 -3 -31 -6 -40 -3 -9 -1 -16 5 -16 6 0 11 10 11 23
1 20 1 21 11 4 10 -18 11 -18 25 0 13 17 13 17 14 -4 0 -13 5 -23 11 -23 6 0
8 7 5 16 -3 9 -6 27 -6 40 0 30 -15 31 -24 2 l-7 -23 -11 23 c-14 29 -28 28
-28 -2z"/>
<path d="M1673 320 c3 -11 2 -18 -3 -15 -4 3 -11 -2 -14 -11 -9 -23 -7 -34 4
-34 6 0 10 7 10 15 0 8 5 15 10 15 6 0 10 -7 10 -15 0 -8 5 -15 11 -15 6 0 8
7 5 16 -3 9 -9 27 -12 40 -3 13 -11 24 -16 24 -6 0 -8 -9 -5 -20z"/>
<path d="M1724 300 c1 -37 16 -59 16 -23 0 14 2 14 20 -2 11 -10 20 -13 20 -7
0 6 -5 14 -10 17 -6 3 -7 17 -4 31 5 21 3 24 -19 24 -22 0 -24 -4 -23 -40z"/>
<path d="M1855 300 c-1 -25 4 -40 11 -40 7 0 10 8 7 20 -4 14 0 20 11 20 9 0
16 -8 16 -20 0 -11 5 -20 10 -20 6 0 10 18 10 40 0 22 -4 40 -10 40 -5 0 -10
-7 -10 -15 0 -8 -7 -15 -16 -15 -10 0 -14 6 -10 15 3 8 0 15 -7 15 -7 0 -12
-16 -12 -40z"/>
<path d="M1198 324 c-11 -10 -10 -52 1 -59 14 -8 18 6 12 38 -3 16 -9 25 -13
21z"/>
<path d="M1438 325 c-7 -7 3 -65 12 -65 4 0 7 14 5 30 -2 31 -8 44 -17 35z"/>
</g>
</svg>
