<?xml version="1.0" standalone="no"?>
<!DOCTYPE svg PUBLIC "-//W3C//DTD SVG 20010904//EN"
 "http://www.w3.org/TR/2001/REC-SVG-20010904/DTD/svg10.dtd">
<svg version="1.0" xmlns="http://www.w3.org/2000/svg"
 width="300.000000pt" height="300.000000pt" viewBox="0 0 300.000000 300.000000"
 preserveAspectRatio="xMidYMid meet">
<metadata>
Created by potrace 1.10, written by Peter Selinger 2001-2011
</metadata>
<g transform="translate(0.000000,300.000000) scale(0.100000,-0.100000)"
fill="#000000" stroke="none">
<path d="M1498 2700 c-4 -14 -8 -34 -8 -45 0 -11 -12 -45 -27 -75 -15 -30 -27
-66 -27 -80 -1 -17 -7 -25 -19 -25 -10 0 -23 -8 -29 -18 -5 -10 -22 -23 -36
-29 l-27 -11 35 -9 c74 -20 144 -99 107 -119 -18 -11 -23 -39 -7 -39 6 0 10
-11 10 -25 0 -17 -9 -29 -29 -40 -51 -26 -53 -82 -3 -106 24 -13 27 -19 28
-71 0 -32 -1 -58 -4 -58 -2 0 -23 14 -47 31 -49 35 -95 98 -95 128 0 11 -4 22
-8 25 -12 7 -8 89 5 93 16 6 28 -18 13 -27 -9 -6 -6 -10 9 -15 23 -7 51 9 51
29 0 6 -7 3 -14 -6 -7 -10 -16 -18 -20 -18 -9 0 -3 33 8 41 4 4 3 16 -3 27
-20 38 -13 51 37 66 63 19 32 33 -38 16 -94 -23 -172 -100 -184 -184 -12 -81
-36 -51 -41 53 -4 60 -5 67 -25 121 -40 113 -52 191 -31 198 9 3 11 0 6 -8 -6
-10 -3 -12 10 -6 11 4 25 0 37 -11 18 -16 19 -16 12 3 -9 24 -33 44 -55 44 -9
0 -33 -11 -53 -25 -39 -26 -49 -20 -16 10 16 14 17 21 8 32 -6 8 -18 11 -27 8
-8 -3 -12 -3 -9 1 4 4 -15 32 -42 62 -28 31 -50 60 -50 64 0 4 -4 8 -10 8 -5
0 -3 -19 4 -44 8 -25 11 -48 8 -51 -4 -3 -5 -21 -4 -40 2 -18 -1 -36 -7 -40
-20 -12 -11 -25 17 -25 17 0 37 -9 48 -21 19 -22 19 -22 -7 -16 -37 9 -89 -10
-121 -45 -34 -36 -35 -39 -3 -25 14 7 25 15 25 20 0 9 52 9 66 -1 6 -4 14 -20
18 -35 3 -15 18 -37 31 -49 17 -15 25 -32 25 -54 0 -20 6 -34 17 -38 14 -6 12
-11 -13 -38 l-29 -31 33 6 c19 4 32 2 32 -4 0 -6 7 -17 15 -25 8 -9 15 -25 15
-36 0 -17 -5 -20 -29 -15 -25 5 -34 1 -55 -24 -27 -32 -33 -63 -16 -74 6 -3
10 2 10 13 0 28 32 52 68 52 33 0 42 -16 21 -37 -8 -8 -8 -17 0 -31 16 -29 15
-30 -31 -37 -58 -10 -89 -27 -126 -69 -61 -70 -63 -168 -3 -239 27 -32 129
-102 138 -94 2 3 -21 22 -52 42 -63 42 -105 97 -105 135 l1 25 15 -27 c20 -37
23 -35 17 11 -10 70 3 106 41 121 19 7 37 21 39 32 6 22 52 25 61 3 5 -13 10
-14 27 -5 18 10 23 8 37 -12 10 -12 17 -27 17 -33 0 -5 7 -18 16 -28 15 -16
30 -60 33 -92 1 -5 8 -15 16 -22 8 -6 12 -14 9 -18 -4 -3 -18 5 -33 18 -14 13
-23 27 -19 31 4 4 1 5 -7 1 -11 -4 -22 10 -39 45 -24 51 -38 67 -48 57 -3 -3
9 -26 25 -51 l31 -45 -30 6 c-59 12 -83 -57 -33 -96 15 -12 30 -21 35 -21 13
0 40 32 33 39 -4 3 -9 0 -11 -6 -3 -7 -15 -13 -28 -13 -32 0 -48 30 -35 64 11
29 43 37 34 9 -5 -15 -4 -16 5 -3 15 22 41 3 73 -56 34 -61 35 -77 3 -98 -25
-16 -35 -56 -14 -56 5 0 8 4 4 9 -3 5 2 17 11 26 15 14 19 14 48 -4 19 -12 32
-30 34 -46 3 -21 -1 -25 -22 -25 -25 0 -66 -30 -66 -48 0 -20 14 -20 24 0 20
40 66 31 71 -13 4 -38 4 -39 18 -33 17 6 41 -20 35 -38 -5 -15 29 -54 39 -45
3 4 2 17 -4 30 -6 12 -17 38 -24 57 -7 19 -21 46 -31 60 -18 23 -18 25 -2 37
11 8 13 13 5 13 -7 0 -11 6 -9 12 3 7 -6 24 -19 38 -22 23 -32 47 -15 37 4 -3
7 6 7 19 0 13 -4 24 -9 24 -6 0 -5 5 1 11 9 9 18 5 35 -12 25 -25 32 -69 14
-81 -7 -5 -7 -8 2 -8 6 0 12 -8 12 -18 0 -23 22 -72 33 -72 5 0 6 -4 2 -10 -3
-5 -1 -17 4 -27 31 -60 44 -105 46 -162 1 -38 7 -67 14 -69 6 -2 11 7 11 22 0
17 5 26 16 26 19 0 9 -40 -12 -53 -8 -4 -14 -13 -14 -18 0 -6 15 -2 33 10 25
16 32 27 32 51 0 17 7 35 15 40 8 5 11 10 7 10 -5 0 -1 7 7 16 9 8 16 28 16
44 0 16 6 33 13 37 15 9 51 82 67 136 6 20 16 37 21 37 5 0 9 7 9 15 0 17 119
417 126 424 11 12 11 -8 -1 -44 -15 -47 -34 -111 -65 -215 -12 -41 -29 -95
-36 -119 -15 -44 -11 -68 6 -41 7 11 12 12 21 3 8 -8 5 -19 -12 -45 -13 -18
-27 -35 -31 -38 -3 -3 -5 -20 -4 -39 1 -18 -5 -50 -14 -70 -10 -20 -22 -47
-28 -61 -15 -34 -70 -129 -93 -162 -10 -14 -19 -32 -19 -40 0 -25 -21 -38 -42
-27 -14 8 -24 7 -36 -3 -13 -11 -15 -11 -10 3 4 9 2 21 -3 26 -6 6 -11 24 -11
41 -1 17 -7 33 -15 36 -7 3 -13 12 -13 19 0 8 -9 22 -20 32 -14 13 -17 22 -10
29 15 15 12 36 -5 36 -8 0 -19 9 -25 20 -8 15 -8 20 2 20 9 0 9 3 1 11 -13 13
-133 18 -133 5 0 -4 -15 -5 -34 -2 -24 5 -34 3 -33 -6 1 -36 -5 -49 -27 -57
-24 -10 -36 -48 -36 -119 0 -32 40 -125 60 -137 15 -9 12 7 -5 32 -41 58 -24
173 30 203 27 15 31 16 37 1 5 -11 7 -8 7 11 1 31 17 33 43 5 13 -14 21 -16
36 -8 25 13 38 0 47 -51 4 -23 13 -38 26 -41 10 -3 24 -18 30 -34 6 -15 15
-36 21 -46 20 -39 -5 -29 -44 17 -22 26 -52 52 -66 57 -34 13 -62 2 -61 -24 0
-22 0 -22 10 1 7 18 14 22 31 17 37 -12 97 -68 98 -92 0 -7 4 -13 8 -13 11 0
35 -51 28 -58 -3 -2 -17 3 -30 12 -28 18 -36 20 -36 8 0 -4 15 -16 34 -26 43
-23 47 -32 37 -98 -7 -42 -15 -58 -42 -80 -37 -31 -61 -35 -101 -14 -16 8 -28
10 -28 5 0 -12 44 -29 75 -29 37 0 145 73 145 97 0 7 5 13 10 13 6 0 10 14 10
30 0 23 5 30 19 30 19 0 19 2 4 40 -17 42 -14 58 9 44 7 -5 18 -9 23 -10 6 0
15 -2 22 -2 6 -1 14 -10 16 -19 4 -17 5 -17 6 -1 1 10 7 15 14 12 18 -6 67 33
67 54 0 12 -6 9 -23 -12 -18 -22 -28 -27 -46 -21 -20 6 -22 11 -15 48 10 62
50 147 69 147 9 0 13 5 9 11 -3 6 0 15 7 20 11 7 11 9 1 9 -15 0 12 58 34 75
8 6 16 37 20 70 3 33 12 65 19 70 6 6 14 16 16 24 3 8 12 15 20 17 7 1 28 5
45 8 42 8 58 -12 50 -59 -4 -19 -14 -39 -24 -44 -9 -6 -12 -11 -5 -11 22 0 53
52 53 90 0 39 -28 74 -65 82 -21 4 -21 7 -11 48 3 14 -3 6 -14 -17 -19 -43
-40 -57 -40 -28 0 9 7 18 15 21 9 4 14 11 13 18 -1 6 5 24 12 39 12 25 15 27
21 10 6 -15 8 -14 19 12 7 17 16 39 21 50 5 11 15 47 24 79 8 32 22 70 30 83
14 20 14 23 1 23 -9 0 -20 -15 -25 -32 l-9 -33 -1 35 c-1 26 -4 31 -11 20 -13
-20 -13 1 1 37 8 21 12 24 19 13 5 -8 8 4 8 33 -1 26 -5 47 -10 47 -4 0 -8 5
-8 11 0 6 6 9 14 6 10 -4 17 7 25 39 13 51 36 61 26 12 l-6 -33 16 34 c19 42
19 52 0 45 -16 -6 -21 11 -7 20 5 3 8 22 7 43 -1 21 4 48 12 61 9 14 10 22 2
22 -6 0 -9 6 -6 13 2 6 10 11 16 9 6 -1 11 3 11 10 0 6 7 20 17 30 9 10 22 39
29 65 6 27 16 47 22 46 5 -1 9 5 8 14 -2 24 25 28 31 4 3 -12 11 -21 18 -21 7
0 16 -7 19 -16 9 -24 7 -54 -4 -54 -5 0 -10 7 -10 16 0 18 -19 37 -40 42 -10
3 -7 -5 8 -20 29 -32 28 -42 -3 -22 -14 9 -28 14 -32 11 -5 -6 41 -29 61 -31
5 -1 17 -23 26 -49 l17 -48 25 33 c38 50 48 73 48 112 0 39 -37 91 -73 101
-47 13 -77 28 -77 37 0 6 7 8 15 4 9 -3 15 1 15 11 0 12 7 14 38 10 35 -6 36
-5 17 9 -14 10 -38 14 -80 12 -57 -3 -61 -5 -84 -40 -13 -21 -28 -35 -33 -32
-13 8 -213 8 -226 0 -17 -10 -37 3 -51 34 -10 24 -10 34 -1 45 15 18 37 19 43
3 3 -8 6 -6 6 5 1 22 15 24 66 11 27 -7 29 -6 16 9 -20 25 -81 22 -122 -6 -29
-20 -34 -29 -37 -69 -2 -29 2 -50 10 -57 70 -58 69 -57 158 -55 47 2 86 8 88
14 2 5 11 10 20 10 15 -1 15 -2 0 -11 -10 -5 -18 -14 -18 -19 0 -20 63 20 68
43 1 11 52 71 55 66 2 -2 8 -11 15 -21 11 -14 9 -20 -15 -42 -15 -14 -34 -26
-41 -26 -7 0 -15 -7 -18 -15 -4 -8 -12 -15 -19 -15 -7 0 -20 -18 -29 -40 -18
-45 -23 -48 -42 -23 -7 10 -16 14 -20 10 -4 -4 2 -15 15 -23 17 -13 20 -19 10
-30 -6 -8 -24 -14 -39 -14 -40 0 -44 -11 -10 -31 32 -20 40 -56 15 -65 -9 -4
-15 -19 -15 -40 0 -27 -4 -34 -19 -34 -24 0 -36 16 -19 23 8 4 7 6 -4 6 -9 1
-25 4 -35 7 -17 5 -17 5 0 -6 9 -6 15 -15 12 -21 -4 -5 -2 -9 4 -9 6 0 17 -10
25 -23 17 -25 11 -67 -10 -67 -8 0 -11 -6 -8 -15 4 -8 2 -15 -4 -15 -11 0 -32
107 -25 127 3 7 0 13 -6 13 -6 0 -19 8 -29 18 -19 17 -58 42 -67 42 -14 0 -2
-19 15 -25 41 -13 69 -106 51 -172 -11 -42 -53 -101 -93 -132 -18 -14 -33 -17
-68 -12 l-45 6 -1 68 c-1 58 4 75 20 65 2 -2 13 6 25 16 15 14 21 31 21 62 0
39 -3 44 -27 50 -43 10 -45 14 -29 39 10 15 14 35 10 53 -5 25 -1 34 25 53 30
22 30 23 9 33 -23 12 -25 33 -2 28 9 -2 27 4 41 13 14 10 28 13 32 8 3 -5 17
-7 31 -3 24 6 24 6 -7 13 -19 4 -39 17 -50 34 -10 15 -26 36 -35 45 -10 10
-18 29 -18 43 0 14 -4 25 -10 25 -5 0 -10 33 -12 73 -2 50 -5 64 -10 47z m-2
-236 c-3 -8 -10 -14 -16 -14 -12 0 -4 104 9 125 7 12 14 -92 7 -111z m-449 36
c-3 -11 -1 -23 4 -26 5 -3 7 -10 4 -15 -4 -5 -1 -9 4 -9 6 0 11 -7 11 -15 0
-8 -4 -15 -10 -15 -5 0 -10 -5 -10 -11 0 -5 5 -7 10 -4 16 10 24 -24 9 -41
-11 -14 -15 -11 -32 22 -13 26 -16 39 -7 44 8 5 6 11 -5 20 -19 16 -19 21 3
48 21 27 26 28 19 2z m1092 -5 c1 16 4 15 16 -9 19 -36 10 -100 -12 -92 -8 3
-12 2 -8 -3 8 -13 -5 -42 -16 -35 -5 3 -8 27 -6 54 2 27 0 54 -4 61 -4 8 -3
20 4 27 9 12 12 11 18 -5 7 -17 8 -17 8 2z m-554 -64 c-8 -8 -55 42 -55 58 0
10 11 4 30 -19 16 -19 27 -36 25 -39z m-596 0 c8 -14 7 -22 -4 -31 -16 -13
-24 -2 -22 33 1 22 14 22 26 -2z m466 8 c4 -6 13 -8 21 -5 10 4 14 -2 14 -19
0 -14 -4 -25 -10 -25 -5 0 -10 8 -10 17 0 9 -3 13 -7 10 -7 -8 -33 11 -33 24
0 13 17 11 25 -2z m-31 -15 c9 -3 16 -10 16 -16 0 -5 7 -16 15 -25 9 -8 13
-18 10 -21 -3 -3 -16 6 -29 21 -13 15 -29 27 -35 27 -7 0 -9 5 -6 10 7 12 8
12 29 4z m-325 -86 c5 -15 4 -26 -2 -30 -17 -10 -27 0 -27 28 0 30 18 31 29 2z
m-9 -77 c0 -11 -6 -9 -19 9 -11 13 -17 29 -14 34 8 11 33 -22 33 -43z m205 10
c-7 -13 -65 -41 -65 -33 0 8 51 41 63 42 5 0 6 -4 2 -9z m564 -110 c-13 -28
-28 -50 -33 -47 -6 2 -10 9 -8 15 1 6 4 21 6 33 1 12 8 24 14 26 7 2 10 8 7
13 -3 4 2 23 12 41 l18 33 3 -31 c2 -17 -7 -55 -19 -83z m-804 69 c-3 -4 4
-10 15 -13 14 -3 20 -14 20 -31 l0 -27 -23 23 c-21 21 -34 73 -15 62 5 -3 6
-9 3 -14z m235 -54 c0 -7 -8 -16 -17 -20 -10 -3 -24 -9 -30 -12 -25 -11 -13
12 15 28 33 21 32 21 32 4z m-176 -57 c-2 -4 5 -10 16 -14 19 -6 44 -39 45
-60 1 -5 9 -25 19 -43 13 -26 15 -40 8 -61 -7 -19 -6 -34 3 -51 13 -25 10 -50
-7 -50 -5 0 -6 5 -3 10 3 6 1 10 -4 10 -6 0 -11 8 -11 18 0 9 -13 23 -29 30
-33 14 -42 38 -27 64 7 11 5 23 -8 42 -9 15 -14 31 -11 36 3 5 1 11 -5 15 -11
7 -13 45 -4 70 5 13 9 14 15 4 4 -7 6 -16 3 -20z m183 -66 c-29 -15 -37 -5
-12 14 19 15 19 15 -5 9 -24 -7 -24 -6 -6 8 17 14 20 14 32 -2 11 -14 9 -19
-9 -29z m520 17 c-11 -30 -21 -37 -31 -22 -6 10 21 52 34 52 4 0 3 -13 -3 -30z
m-607 -21 c0 -6 6 -9 14 -6 15 6 30 -19 20 -34 -3 -5 -13 -9 -22 -9 -13 0 -13
2 4 16 18 15 18 15 -5 8 -16 -4 -21 -3 -17 5 4 6 2 11 -3 11 -6 0 -11 5 -11
10 0 6 5 10 10 10 6 0 10 -5 10 -11z m549 -1 c0 -7 -8 -35 -18 -63 -13 -36
-24 -51 -39 -53 -19 -3 -19 0 11 62 30 61 48 82 46 54z m-429 -6 c0 -8 -43
-32 -55 -32 -14 0 -2 18 18 28 28 13 37 14 37 4z m5 -39 c-11 -7 -23 -13 -28
-13 -5 0 -7 -7 -3 -15 6 -16 -28 -40 -44 -30 -16 10 -11 23 10 30 11 4 18 10
15 15 -7 11 46 40 59 33 5 -4 1 -12 -9 -20z m345 -32 c-6 -12 -18 -21 -26 -21
-12 0 -11 6 7 32 24 33 38 24 19 -11z m-400 -66 c25 -24 53 -44 63 -45 9 0 17
-6 18 -12 0 -10 2 -10 6 0 4 10 9 9 24 -4 10 -9 19 -12 19 -6 0 6 14 10 30 10
29 -1 30 -3 30 -45 0 -23 -4 -43 -10 -43 -5 0 -10 -7 -10 -15 0 -13 -4 -14
-21 -4 -17 8 -24 8 -36 -3 -12 -13 -11 -15 8 -14 26 1 72 -54 51 -61 -10 -4
-10 -8 -2 -19 16 -18 2 -37 -22 -31 -14 4 -18 1 -14 -9 5 -13 -21 -34 -43 -34
-6 0 -11 11 -11 24 0 13 -7 29 -15 36 -8 7 -15 18 -15 25 0 7 -9 33 -20 57
-11 25 -21 62 -22 82 -2 20 -6 36 -9 36 -6 0 -18 24 -45 88 -19 43 -8 40 46
-13z m55 25 c-21 -23 -8 -27 21 -5 25 19 40 19 24 0 -18 -22 -44 -27 -76 -15
l-29 12 25 13 c39 22 57 19 35 -5z m95 -10 c-12 -23 -46 -43 -63 -37 -7 2 2
11 18 20 17 9 26 16 21 17 -5 0 -3 7 4 15 17 20 33 8 20 -15z m274 -54 c-3
-12 -15 -29 -26 -38 -11 -10 -16 -18 -10 -18 11 0 6 -60 -6 -72 -4 -4 -22 -3
-39 4 -25 9 -35 9 -47 -2 -9 -7 -14 -15 -11 -18 2 -3 11 1 19 7 12 10 18 7 30
-18 10 -18 12 -32 6 -36 -5 -3 -7 -19 -4 -34 4 -16 1 -32 -5 -35 -6 -4 -11
-16 -11 -26 0 -10 -8 -25 -18 -32 -12 -8 -19 -25 -19 -47 0 -20 -6 -39 -16
-46 -9 -7 -17 -16 -17 -22 0 -15 -24 -63 -32 -63 -4 0 -5 -7 -2 -15 4 -8 1
-15 -6 -15 -6 0 -8 -5 -5 -11 4 -5 4 -22 0 -36 -4 -18 -9 -23 -17 -15 -7 7 -7
19 0 42 6 17 9 37 6 45 -4 8 -2 15 2 15 10 0 11 76 2 85 -11 11 4 45 26 61 20
15 20 15 1 12 -18 -3 -20 3 -23 73 -2 65 1 80 19 103 12 16 27 25 36 22 8 -4
11 -1 7 5 -3 6 -17 8 -30 5 -23 -6 -24 -4 -24 39 0 25 0 48 -1 52 0 4 4 9 10
11 6 2 12 -5 12 -15 1 -17 2 -17 6 0 2 9 9 15 14 12 10 -7 50 12 62 29 5 8 10
6 17 -4 8 -13 10 -12 10 3 0 10 4 16 8 13 5 -3 16 4 26 15 17 20 18 20 37 3
13 -11 17 -25 13 -38z m111 -79 c-8 -20 -20 -37 -25 -37 -14 0 -12 16 3 32 14
15 19 50 5 42 -11 -7 0 42 16 71 19 34 20 -63 1 -108z m-566 14 c6 -19 11 -43
11 -53 0 -33 -17 -10 -24 31 -3 22 -9 48 -12 58 -5 12 -4 15 3 8 6 -5 15 -25
22 -44z m521 -33 c0 -19 -18 -43 -25 -36 -9 9 4 48 16 48 5 0 9 -6 9 -12z
m-575 -80 c15 -7 24 -17 21 -25 -3 -7 -1 -24 4 -38 7 -19 6 -25 -4 -25 -14 0
-32 48 -22 57 3 3 -5 14 -17 24 -26 21 -19 24 18 7z m118 -20 c7 -25 3 -33
-12 -23 -13 8 -15 45 -2 45 5 0 11 -10 14 -22z m132 -88 c4 -6 1 -18 -7 -27
-9 -12 -9 -15 0 -9 16 10 15 1 -5 -37 -15 -30 -15 -31 0 -18 16 12 17 7 17
-68 0 -45 -4 -80 -9 -77 -13 8 -34 93 -27 111 3 9 2 13 -4 10 -14 -9 -12 19 3
34 10 10 9 11 -4 6 -12 -5 -18 1 -23 21 -6 22 -3 32 16 46 27 20 34 22 43 8z
m-95 -58 c0 -10 5 -23 11 -29 7 -7 7 -13 1 -17 -12 -7 -17 -1 -26 37 -4 16 -2
27 4 27 5 0 10 -8 10 -18z m80 -489 c0 -28 -3 -34 -10 -23 -13 20 -13 60 0 60
6 0 10 -17 10 -37z"/>
<path d="M1524 1602 c-6 -4 -16 -18 -23 -32 l-12 -25 17 23 c9 12 25 22 35 22
11 0 19 5 19 10 0 12 -20 13 -36 2z"/>
<path d="M1999 2378 c-7 -18 -23 -49 -35 -69 -13 -20 -20 -39 -17 -43 3 -3 -1
-16 -9 -28 -8 -13 -13 -29 -10 -36 2 -8 13 5 23 28 10 23 16 46 13 51 -3 5 -1
9 4 9 10 0 57 109 50 116 -3 2 -11 -10 -19 -28z"/>
<path d="M1384 2176 c-19 -29 -20 -36 -8 -57 13 -24 13 -23 8 7 -5 26 -1 35
26 57 24 21 27 27 13 27 -10 -1 -27 -16 -39 -34z"/>
<path d="M1164 1241 c-5 -32 -12 -42 -34 -50 -69 -24 -55 -104 25 -143 42 -21
48 -21 73 -7 28 16 38 59 15 67 -7 2 -13 -1 -13 -7 0 -6 5 -11 10 -11 16 0 11
-27 -6 -34 -35 -14 -73 -5 -103 23 -40 38 -43 82 -5 100 14 6 29 9 33 7 4 -3
13 -1 21 5 12 7 12 9 1 9 -10 0 -12 10 -7 40 3 22 4 40 1 40 -3 0 -8 -18 -11
-39z"/>
<path d="M1178 559 c2 -48 -1 -85 -7 -93 -9 -11 -5 -15 16 -19 31 -6 44 0 25
12 -7 4 -11 22 -10 40 4 54 21 50 53 -13 19 -38 40 -55 53 -42 3 4 2 10 -3 14
-6 4 -18 21 -28 39 -17 31 -17 33 3 53 25 25 25 45 0 70 -14 14 -33 20 -62 20
l-43 0 3 -81z m92 32 c0 -24 -20 -41 -48 -41 -18 0 -23 4 -18 16 3 9 6 24 6
34 0 21 29 31 48 17 6 -5 12 -17 12 -26z"/>
<path d="M1865 619 c3 -9 0 -28 -6 -43 l-12 -26 -14 27 c-7 15 -11 33 -9 40 4
9 -5 13 -32 13 -31 -1 -34 -3 -22 -13 9 -7 26 -27 39 -45 23 -33 23 -34 5 -70
-11 -20 -28 -45 -39 -54 -20 -17 -19 -18 13 -18 21 0 32 4 30 13 -4 20 11 67
22 67 5 0 16 -13 25 -29 11 -23 12 -31 2 -34 -6 -3 5 -6 26 -6 l38 -1 -30 38
c-32 41 -48 82 -32 82 6 0 11 8 11 17 0 9 10 27 21 40 l22 22 -31 -2 c-24 -1
-30 -6 -27 -18z"/>
<path d="M2149 626 c5 -6 3 -23 -4 -39 l-12 -29 -17 26 c-9 15 -14 31 -11 36
4 6 -10 10 -32 10 -37 0 -38 -1 -17 -18 11 -9 30 -31 41 -47 l21 -30 -25 -43
c-14 -23 -29 -42 -34 -42 -5 0 -9 -4 -9 -10 0 -5 14 -10 31 -10 24 0 29 3 21
13 -7 8 -5 22 7 45 l17 32 17 -30 c10 -16 15 -35 12 -40 -4 -6 9 -10 31 -10
36 0 37 0 17 18 -11 9 -29 32 -40 50 -20 32 -20 35 -3 69 9 20 28 42 41 49 23
13 22 13 -18 12 -29 -1 -40 -5 -34 -12z"/>
<path d="M810 624 c0 -4 6 -12 14 -18 17 -14 60 -142 53 -160 -4 -9 4 -15 23
-18 27 -4 28 -3 23 28 -3 19 1 45 11 65 9 17 16 38 16 44 0 7 9 24 20 38 l20
25 -35 0 c-34 0 -48 -12 -23 -20 9 -3 7 -20 -7 -67 l-19 -62 -22 62 c-17 46
-20 67 -12 76 8 10 3 13 -26 13 -20 0 -36 -3 -36 -6z"/>
<path d="M1005 586 c2 -23 7 -63 10 -90 3 -32 1 -54 -7 -64 -12 -13 -6 -15 46
-9 32 3 59 7 61 9 9 11 15 48 7 48 -5 0 -12 -9 -15 -20 -4 -15 -14 -20 -36
-20 -29 0 -31 2 -31 40 0 43 20 55 39 23 8 -14 10 -10 10 22 0 32 -2 36 -10
23 -12 -21 -39 -24 -39 -5 0 6 -3 22 -6 35 -6 20 -3 22 29 22 19 0 38 -6 40
-12 3 -7 6 -3 6 10 1 23 0 23 -71 27 l-37 2 4 -41z"/>
<path d="M1352 608 c9 -13 26 -54 38 -91 20 -58 21 -70 9 -78 -10 -6 -1 -9 26
-9 26 0 35 3 26 9 -11 7 -11 16 -1 47 13 45 26 77 45 117 14 26 13 27 -15 27
-29 0 -41 -15 -19 -22 8 -3 7 -21 -5 -62 -10 -32 -21 -55 -25 -50 -5 5 -16 31
-25 58 -12 37 -13 53 -5 63 9 10 4 13 -26 13 -36 0 -37 -1 -23 -22z"/>
<path d="M1545 624 c-6 -2 -9 -40 -6 -95 2 -69 0 -94 -10 -101 -9 -5 9 -8 50
-6 56 3 64 6 72 26 11 29 11 32 0 32 -5 0 -11 -9 -14 -20 -4 -14 -14 -20 -35
-20 -27 0 -30 4 -34 36 -5 42 17 58 38 29 13 -17 14 -15 14 21 -1 35 -2 37
-14 22 -22 -30 -42 -22 -44 17 -2 33 -1 35 28 35 16 0 30 -4 30 -10 0 -5 5
-10 10 -10 18 0 11 40 -7 41 -10 1 -29 2 -43 4 -14 1 -29 1 -35 -1z"/>
<path d="M1980 610 c-15 -3 -20 -9 -13 -13 14 -9 5 -159 -11 -169 -6 -4 7 -8
29 -8 27 0 35 3 26 9 -17 11 -16 162 1 172 16 10 -4 16 -32 9z"/>
</g>
</svg>
